<svg version="1.1" id="Layer_1" xmlns="http://www.w3.org/2000/svg" xmlns:xlink="http://www.w3.org/1999/xlink" x="0px" y="0px"
	 width="100%" viewBox="0 0 1024 1024" enable-background="new 0 0 1024 1024" xml:space="preserve">
<path fill="#000000" opacity="1.000000" stroke="none" 
	d="
M282.500488,828.385376 
	C277.667480,828.376160 272.831360,828.257690 268.002594,828.396362 
	C264.831299,828.487427 263.596436,827.315613 263.556824,824.049438 
	C263.507050,819.943237 265.347198,814.771790 262.409912,811.997803 
	C259.530609,809.278564 254.413498,811.023193 250.322479,811.164185 
	C245.929169,811.315613 244.187668,809.800781 244.632660,805.416321 
	C244.883759,802.942078 244.451447,800.396606 244.723221,797.926758 
	C245.222870,793.386353 243.160400,792.274170 238.934891,792.288635 
	C226.312317,792.331970 226.198105,792.186157 225.952576,779.533813 
	C225.879349,775.759827 224.806686,773.988342 220.764420,774.301086 
	C217.286880,774.570251 213.769302,774.284607 210.270538,774.329834 
	C207.763016,774.362305 206.628860,773.257324 206.673187,770.721375 
	C206.737244,767.056519 206.535904,763.383972 206.685410,759.724487 
	C206.815720,756.534607 205.642532,755.111450 202.336166,755.316772 
	C199.348038,755.502319 196.318329,755.126953 193.344116,755.401428 
	C189.015518,755.801025 187.496796,754.227356 187.566132,749.775818 
	C187.797104,734.946960 187.453781,720.108093 187.759598,705.281982 
	C187.862411,700.298706 186.112061,699.067017 181.437241,699.178040 
	C170.661102,699.434143 170.657272,699.229858 170.658371,688.336731 
	C170.659088,681.337158 170.449875,674.329163 170.733810,667.341125 
	C170.899567,663.261597 169.322754,661.987915 165.485184,662.276001 
	C162.336670,662.512451 159.139435,662.114380 155.993500,662.367126 
	C151.827652,662.701843 150.551331,661.010315 150.583832,656.913269 
	C150.745117,636.582397 150.660751,616.249634 150.651154,595.917480 
	C150.647766,588.725647 150.410538,588.508484 142.987015,588.416748 
	C131.948502,588.280396 131.953888,588.280334 131.977448,577.125183 
	C131.993622,569.459045 132.075775,561.791687 131.958282,554.127441 
	C131.910065,550.981262 132.991043,549.498535 136.288605,549.642639 
	C139.781357,549.795288 143.287949,549.600403 146.785812,549.677917 
	C149.544907,549.739075 150.719452,548.510071 150.659256,545.768555 
	C150.582458,542.270996 150.734390,538.768555 150.666794,535.270569 
	C150.617828,532.737000 151.686798,531.646912 154.247101,531.711609 
	C158.077606,531.808472 161.920837,531.570435 165.743301,531.769592 
	C169.411530,531.960754 170.740829,530.542969 170.705505,526.838135 
	C170.564087,512.007019 170.630875,497.173676 170.677765,482.341370 
	C170.683899,480.401093 170.166046,478.327209 171.454651,476.651276 
	C174.862885,476.651276 178.185059,476.412018 181.458786,476.708252 
	C186.184631,477.135864 187.815170,475.463165 187.756409,470.553314 
	C187.509094,449.890808 187.643814,429.223663 187.656693,408.558197 
	C187.660904,401.793457 187.686096,401.845764 194.640442,401.804382 
	C208.837280,401.719910 206.438095,403.249817 206.637680,389.957947 
	C206.737793,383.293091 206.776215,376.623230 206.627319,369.960449 
	C206.554504,366.702271 207.838211,365.450684 211.034241,365.618622 
	C214.025589,365.775818 217.040222,365.505157 220.029694,365.679077 
	C223.488052,365.880249 224.752731,364.481079 224.695435,361.009766 
	C224.544205,351.846344 224.792130,342.675903 224.609512,333.513672 
	C224.535995,329.824677 225.819473,328.385834 229.510529,328.616272 
	C232.996353,328.833862 236.514481,328.507843 240.004791,328.686584 
	C243.468628,328.863983 244.748734,327.450928 244.697388,324.008118 
	C244.563187,315.010742 244.836807,306.005157 244.592316,297.012512 
	C244.479294,292.855804 245.924728,291.588654 250.031876,291.592957 
	C262.484375,291.605988 262.672058,291.454071 262.764893,279.173248 
	C262.798431,274.736572 264.315826,273.170166 268.616547,273.586548 
	C271.423492,273.858307 274.301514,273.408081 277.105713,273.693665 
	C281.638489,274.155212 282.762451,272.135834 282.733521,267.897705 
	C282.646912,255.194977 282.794647,255.044678 295.777649,254.924088 
	C300.183899,254.883148 302.379913,253.663559 301.779694,248.934982 
	C301.529938,246.967422 301.751038,244.940659 301.750214,242.940826 
	C301.747314,235.885315 301.746033,235.885300 309.052155,235.884537 
	C320.613678,235.883316 320.613678,235.883316 320.634888,224.212921 
	C320.646729,217.706329 320.646942,217.741333 327.337555,217.702621 
	C340.517059,217.626373 338.472107,219.320007 338.642242,206.243256 
	C338.727905,199.657303 338.683289,199.656723 345.230286,199.639511 
	C357.596588,199.606995 357.596619,199.606995 357.649261,187.269623 
	C357.677338,180.687988 357.677307,180.687988 364.218628,180.655258 
	C376.498749,180.593811 376.672699,180.592270 376.563934,168.286896 
	C376.525787,163.972061 377.719025,162.398041 382.198792,162.557892 
	C391.020355,162.872665 399.863373,162.532059 408.692780,162.705292 
	C412.301056,162.776093 413.973267,161.631317 413.690277,157.847458 
	C413.479584,155.030167 413.873352,152.162781 413.601624,149.356079 
	C413.186218,145.065781 414.664886,143.518112 419.166016,143.592941 
	C434.327606,143.844986 449.497894,143.555725 464.660553,143.773117 
	C469.113892,143.836975 470.825378,142.692719 470.727386,137.900787 
	C470.476715,125.642723 470.701294,125.638824 483.060150,125.639694 
	C522.224548,125.642448 561.388916,125.641647 600.553284,125.649933 
	C607.238647,125.651344 607.191711,125.669022 607.219543,132.160675 
	C607.278137,145.839905 605.707031,143.602341 618.416870,143.645447 
	C651.247925,143.756821 684.080078,143.774033 716.910461,143.589264 
	C721.786194,143.561829 723.603394,144.703918 723.474731,149.939011 
	C723.164185,162.572311 723.433960,162.792084 735.902100,162.541763 
	C740.820618,162.443039 742.573730,163.706848 742.445679,168.916092 
	C742.093506,183.239868 742.458435,197.580002 742.248108,211.909378 
	C742.186462,216.111252 743.179138,217.815735 747.774902,217.751541 
	C760.350281,217.575882 760.350159,217.776718 760.347412,230.253326 
	C760.344604,242.919250 760.485840,255.587509 760.271179,268.249786 
	C760.200317,272.433624 761.678833,273.731750 765.759888,273.743927 
	C769.988037,273.756561 775.293274,271.700500 778.211731,274.874451 
	C780.871277,277.766815 778.960999,282.876678 779.017883,286.995178 
	C779.064209,290.353027 780.099060,291.936066 783.657776,291.702698 
	C786.810303,291.495911 789.998779,291.836639 793.151367,291.630280 
	C796.910767,291.384186 798.768860,292.575684 798.387939,296.673706 
	C798.111572,299.647278 798.511841,302.679688 798.307190,305.665100 
	C798.064148,309.212341 799.178223,310.691559 803.039612,310.732178 
	C815.348572,310.861664 815.346252,311.007812 815.349060,323.529175 
	C815.350403,329.695465 815.457581,335.864044 815.318542,342.027100 
	C815.240479,345.489899 816.670837,346.863220 820.084961,346.678711 
	C823.075745,346.517090 826.108215,346.906677 829.076599,346.603943 
	C833.750427,346.127228 835.928955,347.642792 835.333496,352.638824 
	C835.000549,355.431763 835.438416,358.308594 835.246521,361.128387 
	C835.004822,364.681183 836.572266,365.872955 839.966431,365.684021 
	C843.455261,365.489807 846.972046,365.795898 850.460938,365.601654 
	C854.025757,365.403168 855.164368,367.034790 855.053589,370.365936 
	C854.904785,374.838135 855.016602,379.318970 855.016602,383.811707 
	C857.864563,385.301758 860.742371,384.546967 863.501953,384.599609 
	C866.289062,384.652771 869.083862,384.304626 872.345276,384.103271 
	C872.345276,386.995544 872.345337,389.765015 872.345215,392.534454 
	C872.344055,442.864838 872.345825,493.195190 872.338074,543.525574 
	C872.337036,550.348999 872.314392,550.304749 865.500366,550.392944 
	C852.678101,550.558899 854.478943,548.688477 854.355591,561.519287 
	C854.283508,569.018188 854.243896,576.520020 854.383362,584.016968 
	C854.443237,587.234680 853.266907,588.422913 850.013245,588.375977 
	C840.015930,588.231628 830.013855,588.412720 820.016479,588.271179 
	C816.642212,588.223450 815.046570,589.267700 815.311096,592.844543 
	C815.519348,595.662048 815.137878,598.526611 815.392944,601.336365 
	C815.759766,605.378235 813.973816,606.477051 810.173035,606.439270 
	C795.342102,606.291870 780.506958,606.511902 765.677307,606.308594 
	C761.514404,606.251526 760.002380,607.595642 760.280884,611.742432 
	C760.569214,616.033752 760.345093,620.359619 760.345093,625.525146 
	C741.642029,624.941467 723.449097,626.477173 705.112854,625.321594 
	C703.735718,629.951172 704.345337,634.118591 704.418213,638.186707 
	C704.487122,642.034973 703.264404,643.510559 699.261719,643.413330 
	C689.767944,643.182739 680.261108,643.498840 670.766968,643.275818 
	C666.760559,643.181763 665.189941,644.269104 665.245483,648.572998 
	C665.397766,660.362305 665.214783,660.368896 653.429199,660.371521 
	C623.930908,660.378235 594.432678,660.381958 564.934387,660.383301 
	C561.276062,660.383484 557.652405,660.844971 554.024231,661.116028 
	C549.829895,661.429443 549.127197,663.341797 549.199097,666.858948 
	C549.486877,680.932373 547.475281,678.444824 560.651611,678.622681 
	C570.482605,678.755432 580.318970,678.780823 590.148315,678.598999 
	C593.919067,678.529236 595.707275,679.572876 595.403076,683.652405 
	C595.118835,687.464539 595.235840,691.317505 595.365601,695.146057 
	C595.466309,698.118774 594.319336,699.349548 591.274292,699.258301 
	C586.279419,699.108704 581.274841,699.313293 576.277344,699.215393 
	C573.332581,699.157654 571.982361,700.307617 572.096069,703.332703 
	C572.214905,706.494263 571.975037,709.670776 572.127319,712.829346 
	C572.295837,716.325623 570.751587,717.696167 567.361633,717.381470 
	C566.040283,717.258850 564.697083,717.369141 563.363831,717.378357 
	C551.898193,717.457947 553.474976,716.242065 553.350098,727.642151 
	C553.243713,737.351257 554.187195,736.238464 544.871948,736.380798 
	C533.605530,736.552917 535.541687,735.486267 535.349976,746.071960 
	C535.322815,747.571411 535.253784,749.075806 535.336731,750.570496 
	C535.492676,753.380676 534.136597,754.431946 531.437744,754.377502 
	C527.439880,754.296814 523.437134,754.450989 519.439697,754.361267 
	C516.445557,754.294067 515.226257,755.605774 515.329285,758.575378 
	C515.450623,762.070618 515.209045,765.580200 515.373352,769.071838 
	C515.527588,772.351257 514.126953,773.533630 510.944550,773.387390 
	C507.452728,773.226990 503.943085,773.478149 500.448273,773.352905 
	C497.458252,773.245789 496.227051,774.446472 496.325287,777.469299 
	C496.469818,781.916504 496.362579,786.371826 496.362579,791.038574 
	C487.971436,791.837585 480.168243,792.476257 472.410889,791.525269 
	C467.412140,790.912476 465.725311,792.542480 466.295471,797.401550 
	C466.604065,800.031677 466.143890,802.747314 466.393127,805.390137 
	C466.777374,809.464905 464.923737,810.534424 461.143585,810.445129 
	C452.648834,810.244324 444.144714,810.470276 435.647278,810.337158 
	C432.476013,810.287476 430.997437,811.341492 431.209076,814.652649 
	C431.378784,817.308350 431.052185,820.000671 431.289581,822.645935 
	C431.672394,826.912048 430.173798,828.620361 425.665833,828.459595 
	C417.177246,828.156860 408.666962,828.509216 400.171906,828.316833 
	C396.468536,828.232971 395.032227,829.525574 395.300323,833.242676 
	C395.539429,836.558105 395.236755,839.909058 395.363251,843.237122 
	C395.475647,846.194946 394.312988,847.301208 391.289398,847.431641 
	C386.869476,847.622314 381.339783,845.366760 378.317383,848.509216 
	C375.535614,851.401550 377.453400,856.794312 377.407227,861.071838 
	C377.371765,864.359497 376.106750,865.378418 372.940765,865.365906 
	C350.775757,865.278259 328.609894,865.255798 306.445190,865.374390 
	C302.667450,865.394592 301.443085,863.912231 301.611542,860.336975 
	C301.799255,856.352783 301.633667,852.351990 301.824249,847.692505 
	C302.161041,846.874451 302.295441,846.722229 302.869293,846.589172 
	C316.639740,846.621826 329.971344,846.712463 343.301392,846.605591 
	C347.758759,846.569824 353.268372,848.462646 356.408081,845.751343 
	C359.720825,842.890625 357.474792,837.245300 357.546600,832.846313 
	C357.608093,829.079224 358.594452,827.273987 362.653809,827.594238 
	C365.965302,827.855408 369.319672,827.520386 372.646301,827.659058 
	C375.621002,827.783081 376.953125,826.622498 376.817505,823.588562 
	C376.691101,820.761536 376.986328,817.908936 376.757965,815.095032 
	C376.431671,811.074158 378.266083,809.725647 382.042328,809.933289 
	C385.198730,810.106873 388.375031,809.884583 391.537720,809.986816 
	C394.496094,810.082336 395.674805,808.854736 395.699585,805.841064 
	C395.737366,801.250061 395.117126,796.599487 396.140259,792.192688 
	C396.771515,791.952820 397.075134,791.738159 397.380188,791.736084 
	C404.543549,791.687500 411.707062,791.643799 418.870575,791.635864 
	C432.503204,791.620667 432.503204,791.630188 432.740784,778.284607 
	C432.746704,777.951416 432.781006,777.614746 432.747101,777.285339 
	C432.393097,773.842224 433.913147,772.548767 437.372284,772.624329 
	C444.867279,772.788025 452.368561,772.663574 459.867249,772.660889 
	C471.589722,772.656616 471.589691,772.657959 471.651031,761.192139 
	C471.654602,760.525574 471.723114,759.852173 471.652283,759.193665 
	C471.272064,755.659058 472.975464,754.636292 476.334534,754.578796 
	C480.776123,754.502747 486.344971,756.557129 489.386078,753.629272 
	C492.655426,750.481812 490.495361,744.765442 490.561432,740.194702 
	C490.620209,736.130554 492.176819,735.151672 496.040680,735.339600 
	C503.354797,735.695312 510.700165,735.658936 518.025208,735.481934 
	C529.797241,735.197449 529.981812,735.090210 529.787720,723.239990 
	C529.711731,718.604736 530.869690,716.357605 535.887329,716.948120 
	C538.680359,717.276855 541.551697,716.872803 544.377014,717.013611 
	C547.630188,717.175781 548.801941,715.749512 548.762573,712.564575 
	C548.645325,703.067566 548.618530,693.567139 548.750122,684.070740 
	C548.797607,680.640991 547.533508,679.265930 544.075562,679.337341 
	C537.079834,679.481750 530.078857,679.376892 523.080078,679.376770 
	C509.994171,679.376526 509.994171,679.377075 509.635040,666.570923 
	C509.630371,666.404358 509.615540,666.236206 509.631439,666.071289 
	C509.962921,662.629578 508.401093,661.246521 504.966675,661.364075 
	C500.366669,661.521606 495.757202,661.403137 490.648315,661.403137 
	C490.648315,656.627930 490.435852,652.479675 490.708557,648.363647 
	C490.976288,644.323120 489.297974,643.001587 485.456970,643.285461 
	C482.308594,643.518127 479.125671,643.236023 475.963104,643.338074 
	C473.064728,643.431580 471.881256,642.299988 471.680664,639.281067 
	C470.651154,623.787048 472.054840,622.399719 487.523804,623.793091 
	C490.230408,624.036865 491.425659,625.029541 491.355469,627.769348 
	C491.261566,631.432678 491.408386,635.101685 491.341492,638.766296 
	C491.291290,641.515991 492.525665,642.700439 495.260559,642.652893 
	C499.091583,642.586243 502.926117,642.725586 506.757355,642.665344 
	C509.281830,642.625732 510.403107,643.701477 510.338806,646.248474 
	C510.258972,649.412231 510.522675,652.592957 510.300598,655.742554 
	C510.043823,659.384583 511.326477,660.834717 515.113464,660.716187 
	C522.271790,660.492065 529.443604,660.748047 536.607422,660.640564 
	C550.594910,660.430786 548.344238,662.864075 548.752808,648.434998 
	C548.861572,644.595947 547.729309,642.992371 543.700317,643.139160 
	C539.740601,643.283447 534.853149,644.804016 532.003418,642.445251 
	C528.754761,639.756348 530.852905,634.608826 530.745178,630.559387 
	C530.652161,627.062561 529.311951,625.760498 525.960815,625.872620 
	C522.465576,625.989563 518.955688,625.741455 515.465576,625.917542 
	C511.478363,626.118713 509.621368,624.661255 509.845398,620.445862 
	C510.101501,615.626343 509.951721,610.785217 510.443298,605.863403 
	C513.237427,605.730957 515.566711,605.649658 517.895874,605.652588 
	C531.008911,605.669006 531.143066,605.674866 531.247498,618.952637 
	C531.277405,622.759827 532.629700,623.802856 536.232605,623.731506 
	C545.719116,623.543518 555.213196,623.762329 564.701477,623.625061 
	C568.092529,623.576111 569.602295,624.718872 569.380432,628.236816 
	C569.181763,631.387390 569.556641,634.578064 569.299988,637.720093 
	C568.972473,641.729980 570.627808,642.842834 574.501282,642.806458 
	C594.312500,642.620117 614.126221,642.729248 633.938538,642.627747 
	C646.045166,642.565796 644.558350,644.275879 644.642395,632.113220 
	C644.688843,625.386108 644.630249,625.361023 638.104614,625.355530 
	C622.786987,625.342651 607.468201,625.257812 592.152405,625.425537 
	C588.219971,625.468628 586.194153,624.512085 586.604004,620.166504 
	C586.884094,617.196289 586.455872,614.161804 586.698242,611.184875 
	C587.002258,607.453003 585.534241,606.235840 581.840454,606.313110 
	C572.354431,606.511597 562.860107,606.290100 553.371765,606.423462 
	C549.984192,606.471069 548.471191,605.320129 548.695007,601.802124 
	C548.895325,598.651733 548.649658,595.475464 548.750183,592.315430 
	C548.834351,589.670776 547.958313,588.294495 545.058777,588.317749 
	C534.903198,588.399048 524.746094,588.406311 514.590637,588.318970 
	C511.271393,588.290466 510.319336,589.852722 510.313843,592.934082 
	C510.306183,597.239075 510.890045,601.581238 509.435303,606.026978 
	C506.844635,606.262146 504.686859,606.377258 502.528961,606.380066 
	C490.727692,606.395325 490.506500,606.381165 490.757355,594.530884 
	C490.860718,589.647949 489.222656,588.273743 484.475098,588.311279 
	C459.812897,588.506592 435.148346,588.406677 410.484619,588.408447 
	C394.919708,588.409607 394.999451,588.411926 395.596680,573.008362 
	C395.720123,569.825012 396.736969,568.609985 399.974854,568.593750 
	C404.263000,568.572266 409.620056,570.423401 412.579559,567.754456 
	C415.865448,564.791260 413.640747,559.235291 413.722290,554.836548 
	C413.793610,550.989868 415.035950,549.524719 418.978546,549.605957 
	C428.639771,549.805054 438.309601,549.560425 447.972900,549.702698 
	C451.457764,549.753967 452.812653,548.400574 452.657928,544.991699 
	C452.499420,541.498840 452.593536,537.994446 452.581879,534.495056 
	C452.576141,532.766724 452.572906,530.899048 454.984741,530.959351 
	C460.393707,531.094604 465.922638,530.080872 471.352112,532.300903 
	C471.352112,536.114746 471.625885,539.783875 471.286377,543.395264 
	C470.805328,548.512817 472.834198,549.836487 477.838379,549.772644 
	C499.498962,549.496155 521.165039,549.648438 542.829102,549.639771 
	C549.319214,549.637146 549.321838,549.629517 549.346741,556.307556 
	C549.356628,558.973877 549.474121,561.647156 549.323120,564.304810 
	C549.140442,567.520935 550.190369,568.934387 553.661682,568.381531 
	C556.274414,567.965332 558.975891,568.055176 561.639282,568.018188 
	C568.319275,567.925354 568.280457,567.948242 568.366760,574.427856 
	C568.406433,577.404114 568.300171,580.347412 569.038513,583.347168 
	C569.682312,585.962769 570.753235,586.981323 573.376221,586.968201 
	C589.373962,586.888123 605.372192,586.847473 621.369934,586.901306 
	C624.616882,586.912231 625.728088,585.595154 625.709534,582.404907 
	C625.683777,577.975220 625.156921,573.487976 626.265259,568.407043 
	C630.198181,568.407043 634.000244,568.284851 637.791687,568.433899 
	C644.542664,568.699341 644.610840,568.768127 644.619873,562.130554 
	C644.652649,538.133484 644.636963,514.136414 644.632385,490.139313 
	C644.629944,477.394623 644.618591,477.187103 632.115479,477.465027 
	C627.232178,477.573578 625.481812,476.373688 625.530823,471.135315 
	C625.784973,443.974304 625.637329,416.809570 625.652954,389.646149 
	C625.653748,388.184235 625.295471,386.644135 626.227356,385.244476 
	C627.917664,384.270905 629.786926,384.687927 631.573608,384.674042 
	C643.555420,384.580963 643.555542,384.599762 643.675415,372.630615 
	C643.744995,365.683502 643.744995,365.683533 650.475037,365.643616 
	C663.536865,365.566223 663.725159,365.563629 663.548096,352.506348 
	C663.485718,347.907684 664.917664,346.502869 669.488647,346.572723 
	C685.149780,346.812164 700.817749,346.571411 716.480957,346.729858 
	C720.349060,346.769012 722.007019,345.560425 721.698059,341.575073 
	C721.454041,338.428131 721.781128,335.240509 721.629089,332.081818 
	C721.478088,328.944580 722.593933,327.473694 725.911316,327.615784 
	C729.903381,327.786804 733.913574,327.773529 737.906433,327.608734 
	C741.084045,327.477631 742.376343,328.645020 742.332275,331.926178 
	C742.198059,341.923187 742.170532,351.924957 742.339539,361.920837 
	C742.400940,365.549866 740.838745,366.458832 737.543274,366.389557 
	C730.214172,366.235504 722.877625,366.254028 715.547668,366.392365 
	C711.794678,366.463226 707.947937,365.658813 703.957458,367.150360 
	C703.957458,371.051056 703.743103,374.880035 704.014404,378.674347 
	C704.319763,382.945129 702.887878,384.598663 698.387146,384.463837 
	C688.563843,384.169525 678.723206,384.499847 668.894653,384.313477 
	C665.167603,384.242859 663.755859,385.653564 663.926025,389.270569 
	C664.082458,392.595886 663.916870,395.935059 663.967468,399.266998 
	C664.011902,402.189697 662.742188,403.496216 659.733704,403.358459 
	C656.408020,403.206177 653.064636,403.445251 649.738037,403.302460 
	C646.511597,403.163910 645.308289,404.519806 645.319580,407.730103 
	C645.393860,428.893982 645.418335,450.058594 645.294617,471.222046 
	C645.273376,474.855896 646.772644,475.841248 650.085205,475.714233 
	C654.679871,475.537994 659.286438,475.669891 664.346619,475.669891 
	C664.346619,478.235840 664.346558,480.035187 664.346619,481.834564 
	C664.347351,499.832428 664.347717,517.830261 664.348938,535.828125 
	C664.349854,549.568237 664.354004,549.781189 678.308350,549.541687 
	C683.258118,549.456726 684.502869,551.138611 684.422058,555.831238 
	C684.163818,570.825073 684.341919,585.826050 684.296570,600.824158 
	C684.288208,603.577637 684.461609,605.716675 688.173279,605.691895 
	C704.670593,605.582153 721.169006,605.609863 737.666870,605.654175 
	C740.383789,605.661438 741.678223,604.603760 741.618530,601.824646 
	C741.547058,598.493408 741.860413,595.136047 741.552429,591.832397 
	C741.188354,587.927185 742.909302,586.894287 746.458496,587.036438 
	C751.259460,587.228516 756.073914,587.084167 761.077454,587.084167 
	C762.233276,582.722229 761.810730,578.363464 761.542114,574.132263 
	C761.224609,569.128967 762.826416,567.526978 767.955872,567.597534 
	C788.116272,567.874695 808.283386,567.633606 828.446594,567.776978 
	C832.419067,567.805237 834.046997,566.741089 834.053467,562.458740 
	C834.079834,544.974365 834.386597,527.489746 834.695618,510.007019 
	C834.774536,505.544922 832.859619,500.025818 835.583069,496.896393 
	C838.442200,493.611084 844.098511,496.141266 848.495422,495.633728 
	C848.659973,495.614685 848.830139,495.613831 848.994873,495.631134 
	C852.439575,495.992493 853.698853,494.461487 853.688538,491.005981 
	C853.605347,463.176239 853.603882,435.346008 853.694824,407.516266 
	C853.705933,404.124969 852.283630,403.161743 849.181213,403.295410 
	C845.522095,403.453033 841.846375,403.210754 838.185486,403.347626 
	C835.025269,403.465790 833.577087,402.247742 833.701904,398.990082 
	C833.835815,395.496002 833.611389,391.988403 833.739136,388.493835 
	C833.847412,385.530609 832.716003,384.179413 829.658569,384.346130 
	C827.000427,384.491089 824.327576,384.366669 821.661255,384.362854 
	C814.687012,384.352844 814.681396,384.353180 814.674194,377.142487 
	C814.666321,369.310089 814.437561,361.468201 814.755981,353.648834 
	C814.947144,348.955780 813.586792,346.970612 808.620178,347.295593 
	C802.978394,347.664734 797.293823,347.378784 791.627808,347.377228 
	C778.951294,347.373779 778.837830,347.374664 778.723755,334.628113 
	C778.689941,330.854584 777.629150,329.306335 773.596924,329.287933 
	C761.724915,329.233673 761.725647,329.083588 761.644653,317.086609 
	C761.599426,310.386230 761.597473,310.477783 755.072266,310.341034 
	C750.936523,310.254395 745.799988,312.070923 742.919922,309.536530 
	C739.704346,306.706879 741.784119,301.345367 741.744812,297.117401 
	C741.709351,293.300568 740.196411,292.250977 736.637329,292.316345 
	C727.474792,292.484558 718.307068,292.408447 709.141846,292.351440 
	C707.386841,292.340546 705.458008,292.901917 703.631287,291.152649 
	C703.631287,287.081146 703.516968,282.758423 703.668518,278.445068 
	C703.783325,275.178162 702.365540,274.008698 699.203613,274.059479 
	C691.872986,274.177216 684.539307,274.114197 677.206909,274.110382 
	C663.872375,274.103394 663.692322,274.098419 663.744446,260.893494 
	C663.762390,256.346375 662.050293,255.218506 657.845398,255.313507 
	C647.685181,255.543045 637.516235,255.383057 627.350769,255.383347 
	C590.688477,255.384415 554.026123,255.384903 517.363831,255.390396 
	C510.366394,255.391434 510.418823,255.398544 510.795563,262.191437 
	C511.014740,266.142944 511.127319,270.114929 509.891815,274.198914 
	C500.684174,274.198914 491.716644,274.196075 482.749115,274.199646 
	C471.386108,274.204132 471.386108,274.206390 471.348053,285.526703 
	C471.325012,292.380432 471.325012,292.380402 464.513245,292.389740 
	C452.375305,292.406342 452.375275,292.406342 452.259979,304.291931 
	C452.255127,304.791840 452.202148,305.297272 452.256317,305.790802 
	C452.638336,309.271179 451.049591,310.491852 447.629028,310.428772 
	C439.466156,310.278168 431.298615,310.386658 423.132935,310.384308 
	C415.354919,310.382080 415.353302,310.378601 415.349243,318.389526 
	C415.345367,326.055267 415.065125,333.734863 415.443573,341.381805 
	C415.689392,346.348938 413.831787,347.946716 409.136658,347.430389 
	C406.502197,347.140656 403.806274,347.462830 401.144348,347.354614 
	C398.375153,347.242065 397.201416,348.426636 397.276917,351.201477 
	C397.376587,354.864716 397.186462,358.536407 397.307892,362.198273 
	C397.405914,365.153809 396.261810,366.463287 393.221863,366.364136 
	C389.227051,366.233856 385.223663,366.395203 381.224823,366.350952 
	C378.496307,366.320801 377.292816,367.555939 377.344666,370.294891 
	C377.417206,374.125916 377.271637,377.960999 377.338867,381.792206 
	C377.384064,384.368317 376.227051,385.369659 373.706207,385.291931 
	C370.043427,385.178955 366.372528,385.319672 362.710693,385.191437 
	C359.550568,385.080719 358.215424,386.317505 358.295685,389.597198 
	C358.458771,396.259033 358.337067,402.927765 358.341248,409.593628 
	C358.348633,421.341980 358.342743,421.616333 346.434235,421.245911 
	C341.135406,421.081085 340.022339,422.992584 340.121368,427.859314 
	C340.406067,441.851654 340.215057,455.853821 340.202118,469.852112 
	C340.195160,477.377319 340.186951,477.377258 332.433960,477.369171 
	C330.267578,477.366913 328.094910,477.469147 325.936249,477.339081 
	C322.450653,477.129089 321.306091,478.726410 321.310974,482.115631 
	C321.377533,528.110046 321.379913,574.104675 321.307465,620.099060 
	C321.301880,623.651428 322.759521,624.721252 326.100220,624.703369 
	C330.694885,624.678711 335.340424,624.218872 340.415314,625.164307 
	C340.415314,639.062500 340.411255,652.693848 340.416504,666.325256 
	C340.421509,679.465088 340.425720,679.465088 353.722992,679.650085 
	C353.889618,679.652405 354.058868,679.670837 354.222565,679.649048 
	C358.162628,679.125916 359.457764,680.886353 359.373505,684.767700 
	C359.167389,694.262085 359.376465,703.764893 359.257538,713.262268 
	C359.217560,716.455505 360.165039,718.016968 363.603210,717.371094 
	C367.368622,716.663757 371.184845,718.141846 375.020081,716.978394 
	C377.413422,716.252258 378.199890,718.076172 378.213165,720.206909 
	C378.233917,723.539551 378.456085,726.886780 378.219177,730.201111 
	C377.932343,734.214050 379.224945,736.111938 383.533142,735.692017 
	C386.503662,735.402405 389.529419,735.734375 392.525482,735.636230 
	C395.311646,735.544983 396.381165,736.788452 396.337067,739.521057 
	C396.256470,744.518494 396.358063,749.518921 396.165894,754.732971 
	C395.802551,755.090698 395.656921,755.233521 395.074280,755.382874 
	C390.976593,755.381470 387.299591,755.152893 383.659454,755.422424 
	C379.268341,755.747681 377.047821,754.417847 377.597015,749.615723 
	C377.897980,746.984192 377.515411,744.281616 377.673950,741.624939 
	C377.902283,737.799866 376.706482,735.997253 372.478180,736.742920 
	C369.045471,737.348267 365.521393,737.170410 362.023590,736.695496 
	C359.945343,736.413391 358.933685,735.714355 358.490967,733.416565 
	C357.785889,729.756897 357.892029,726.116760 357.902954,722.469116 
	C357.911865,719.493286 356.692230,718.216614 353.715790,718.312012 
	C350.553497,718.413391 347.375427,718.147705 344.220703,718.328857 
	C340.708038,718.530396 339.549011,717.021362 339.609558,713.623108 
	C339.757935,705.293640 339.656464,696.959717 339.647400,688.627563 
	C339.638397,680.374207 339.634003,680.374573 331.623016,680.369507 
	C329.789948,680.368347 327.933807,680.175903 326.128357,680.397644 
	C321.605225,680.953064 320.467529,678.889771 320.550842,674.641968 
	C320.786163,662.648254 320.636932,650.646973 320.631653,638.648682 
	C320.626251,626.472473 320.608093,626.669495 308.457001,625.794922 
	C304.339386,625.498535 303.245605,626.651367 303.280426,630.622559 
	C303.439789,648.785217 303.349030,666.950134 303.348053,685.114197 
	C303.347382,697.849731 303.347351,697.849792 316.246857,698.006165 
	C316.413513,698.008179 316.583069,698.029114 316.746338,698.006042 
	C320.205414,697.517761 321.462677,698.980286 321.399017,702.478149 
	C321.232239,711.640442 321.539398,720.813599 321.265228,729.970642 
	C321.136993,734.254028 322.306488,736.095215 326.849731,735.718933 
	C331.101227,735.366882 335.404755,735.643616 340.179688,735.643616 
	C340.179688,741.526550 340.185852,746.816833 340.176788,752.107117 
	C340.172852,754.407227 338.948914,755.360107 336.705811,755.334167 
	C332.540680,755.286072 328.373810,755.267395 324.209259,755.334717 
	C321.659760,755.375916 320.608551,754.224976 320.661285,751.712097 
	C320.734650,748.214478 320.522980,744.707275 320.689392,741.216370 
	C320.831085,738.242981 319.502747,736.851929 316.687469,736.714722 
	C313.362640,736.552673 310.030945,736.342407 306.707031,736.405762 
	C303.682007,736.463318 302.579346,735.170288 302.632874,732.214905 
	C302.747498,725.884644 302.661407,719.550781 302.656616,713.218384 
	C302.646210,699.460999 302.643951,699.257141 288.691345,699.396362 
	C283.729034,699.445801 282.528687,697.647156 282.581909,693.004150 
	C282.795929,674.342651 282.671967,655.677185 282.669708,637.013184 
	C282.668213,624.700562 282.665802,624.700500 294.982056,624.654968 
	C301.631897,624.630310 301.647247,624.630371 301.648224,618.069580 
	C301.653625,581.741394 301.651337,545.413208 301.650909,509.085052 
	C301.650757,495.103821 301.654694,495.179260 287.348877,496.093719 
	C284.323700,496.287109 283.263306,497.442871 283.319702,500.371796 
	C283.438354,506.535248 283.349579,512.702637 283.348877,518.868408 
	C283.347351,532.598083 283.350494,532.730103 269.630432,532.979370 
	C265.478607,533.054871 264.216736,534.536926 264.270081,538.602905 
	C264.462372,553.264893 264.360992,567.931091 264.312988,582.595520 
	C264.306610,584.541992 264.804810,586.603699 263.692535,588.231934 
	C257.437775,588.231934 251.352585,588.231934 245.142746,588.231934 
	C244.952515,587.028381 244.717911,586.229980 244.716156,585.431091 
	C244.684265,570.933350 244.609406,556.435059 244.692841,541.937805 
	C244.760574,530.170166 243.200211,531.821350 255.148026,531.707031 
	C262.656952,531.635193 262.671783,531.693726 262.672546,523.927246 
	C262.677612,473.767700 262.675690,423.608185 262.677673,373.448639 
	C262.677734,371.782288 262.776703,370.111542 262.686615,368.450592 
	C262.533661,365.631866 263.892548,364.595856 266.587952,364.655457 
	C270.418610,364.740112 274.259491,364.516907 278.083710,364.692841 
	C281.615326,364.855255 282.763397,363.295166 282.704712,359.925873 
	C282.568298,352.096069 282.664398,344.262207 282.669220,336.429993 
	C282.674011,328.663513 282.676117,328.720612 290.594086,328.643219 
	C303.391510,328.518158 301.488861,330.312164 301.640839,317.438385 
	C301.720886,310.655792 301.676575,310.655243 308.546906,310.635071 
	C321.306244,310.597595 321.306244,310.597626 320.424713,297.987061 
	C319.996002,291.854736 320.115814,291.721954 326.126068,291.666168 
	C339.349121,291.543457 339.349274,291.543427 339.654633,278.691132 
	C339.662567,278.357941 339.691956,278.021881 339.661530,277.691742 
	C339.380676,274.641693 340.860596,273.516418 343.797394,273.623047 
	C347.125702,273.743896 350.470978,273.490265 353.792419,273.683197 
	C357.561188,273.902130 358.871643,272.250854 358.623993,268.629517 
	C358.408417,265.477539 358.751953,262.285522 358.506104,259.137939 
	C358.242096,255.757187 359.716644,254.717026 362.862183,254.832581 
	C366.186768,254.954727 369.522919,254.719162 372.853973,254.721024 
	C375.599487,254.722565 376.792206,253.412231 376.654938,250.702057 
	C376.579163,249.206528 376.659332,247.703323 376.661682,246.203568 
	C376.676239,237.010895 376.675507,237.010895 385.814789,236.646576 
	C395.655914,236.254288 395.655701,236.254272 395.664734,226.541672 
	C395.665833,225.375183 395.775604,224.197708 395.654907,223.044189 
	C395.249390,219.168732 396.846191,217.742981 400.799469,217.829514 
	C410.293121,218.037323 419.795532,217.807663 429.292908,217.903687 
	C432.497101,217.936081 433.803253,216.724045 433.684692,213.478882 
	C433.515839,208.857910 433.641754,204.226166 433.641754,199.768509 
	C434.232544,199.434708 434.512329,199.139282 434.794861,199.136627 
	C452.116943,198.973022 469.439484,198.852158 486.761383,198.671143 
	C489.327484,198.644333 490.353668,199.758469 490.307190,202.273346 
	C490.236389,206.104416 490.426514,209.942001 490.296387,213.769699 
	C490.194031,216.780701 491.470703,217.950699 494.427094,217.945312 
	C518.562500,217.901352 542.697998,217.920563 567.676636,217.920563 
	C567.676636,213.467163 567.953186,209.174454 567.602478,204.933640 
	C567.216431,200.265228 569.029602,198.943665 573.565979,198.988037 
	C593.227783,199.180328 612.892822,199.054825 632.556641,199.044037 
	C645.272644,199.037079 645.480896,199.040359 645.245178,211.524246 
	C645.153748,216.364777 646.690125,217.821747 651.490540,217.743378 
	C667.484070,217.482300 683.485046,217.720566 699.481567,217.579681 
	C703.135925,217.547501 704.630371,218.745132 704.388367,222.465698 
	C704.161682,225.949875 704.396179,229.461884 704.349915,232.960632 
	C704.317200,235.432220 705.367859,236.654205 707.916199,236.646042 
	C717.747864,236.614578 727.579773,236.637924 737.411560,236.632248 
	C739.000244,236.631332 740.606079,236.402740 740.667725,234.392166 
	C740.817993,229.490997 742.210449,224.571808 740.614502,219.257660 
	C736.431702,219.257660 732.300903,219.234680 728.170532,219.262955 
	C721.725647,219.307053 721.667847,219.296860 721.658081,213.031647 
	C721.636353,199.033661 721.657349,185.035629 721.644958,171.037613 
	C721.639038,164.346222 721.622559,164.327011 715.068848,164.325348 
	C682.406799,164.317108 649.744629,164.385345 617.082886,164.285385 
	C604.590027,164.247162 606.132690,166.252975 606.058167,153.093750 
	C606.012024,144.944458 606.052551,144.947754 597.663940,144.947403 
	C560.335999,144.945770 523.007996,144.920029 485.680054,144.967758 
	C481.208313,144.973480 475.538147,143.030746 472.570007,145.632248 
	C469.242004,148.549118 471.440063,154.448334 471.466064,159.009842 
	C471.490051,163.212112 470.015320,164.425522 465.954803,164.375168 
	C450.792603,164.187103 435.625397,164.400162 420.463104,164.215790 
	C416.571381,164.168457 415.088104,165.306885 415.258484,169.328201 
	C415.424103,173.236008 415.946228,177.255661 414.701782,181.196976 
	C413.708740,181.323181 412.893097,181.507065 412.075043,181.518585 
	C401.914917,181.661591 391.752625,181.934692 381.595062,181.816223 
	C378.230194,181.776978 377.115997,182.830612 377.300140,186.068542 
	C377.489075,189.390213 377.196259,192.738266 377.359894,196.062683 
	C377.521118,199.338226 376.106110,200.541656 372.932617,200.396515 
	C369.606903,200.244415 366.262482,200.496841 362.937317,200.338943 
	C359.443024,200.173004 358.129669,201.712860 358.304199,205.107178 
	C358.466583,208.264893 358.193817,211.445663 358.370605,214.601822 
	C358.559143,217.967896 357.366211,219.546585 353.816101,219.341827 
	C350.494568,219.150284 347.148590,219.414307 343.821228,219.281509 
	C340.678467,219.156052 339.164642,220.332199 339.325134,223.627426 
	C339.470886,226.619614 339.161621,229.638809 339.385986,232.621048 
	C339.672180,236.425522 337.986511,237.655334 334.399719,237.410889 
	C331.414490,237.207413 328.400177,237.472427 325.404968,237.361633 
	C322.362823,237.249115 321.154449,238.666382 321.325043,241.588654 
	C321.402618,242.917038 321.346588,244.254318 321.325623,245.587189 
	C321.150787,256.712006 323.031616,256.070221 311.028259,256.284851 
	C302.009308,256.446075 302.304779,254.854614 302.347107,264.885345 
	C302.351318,265.885162 302.228943,266.901733 302.366974,267.882111 
	C303.048401,272.721466 301.416840,275.023895 296.133423,274.472076 
	C293.196106,274.165283 290.164703,274.823853 287.171814,274.963867 
	C284.595764,275.084351 283.392242,276.115234 283.220673,278.923828 
	C282.952209,283.318237 285.342957,288.835754 281.990723,291.830963 
	C278.776917,294.702454 273.327667,292.694397 268.874268,292.962738 
	C265.484161,293.166962 264.218872,294.433014 264.284424,297.856506 
	C264.450256,306.518677 264.114075,315.193909 264.417389,323.848541 
	C264.575165,328.350250 262.916351,329.835571 258.629883,329.428314 
	C255.822403,329.161530 252.956451,329.547485 250.138947,329.339630 
	C246.346558,329.059784 245.226135,330.757355 245.295776,334.353699 
	C245.466751,343.182404 245.126205,352.024475 245.435013,360.845612 
	C245.592819,365.353180 243.959778,366.815857 239.660324,366.407288 
	C236.688568,366.124847 233.662338,366.475006 230.668182,366.352753 
	C227.445602,366.221130 226.188583,367.636566 226.242508,370.818665 
	C226.355453,377.482452 226.269608,384.149475 226.275558,390.815186 
	C226.286636,403.237030 226.284622,403.473816 213.984344,403.210968 
	C209.112411,403.106873 208.183929,404.948517 208.221268,409.311310 
	C208.398071,429.973450 208.307297,450.638062 208.259705,471.301666 
	C208.255234,473.240082 208.741135,475.293213 207.412125,477.360748 
	C204.042999,477.360748 200.575745,477.364746 197.108505,477.359863 
	C189.334656,477.348969 189.330750,477.347229 189.330582,484.857269 
	C189.329132,553.514160 189.329025,622.171082 189.329498,690.828003 
	C189.329514,691.994446 189.386765,693.162781 189.338470,694.326965 
	C189.233307,696.862549 190.483368,697.979614 192.948486,697.978027 
	C196.281036,697.975830 199.625824,698.209656 202.943085,697.996155 
	C207.027054,697.733337 208.496765,699.273987 208.424728,703.453613 
	C208.206573,716.114746 208.342377,728.781982 208.345840,741.446838 
	C208.349167,753.635132 208.352219,753.635132 220.395370,753.665344 
	C227.321533,753.682739 227.321548,753.682739 227.348068,760.422668 
	C227.395920,772.588684 227.395905,772.588684 239.270660,772.678589 
	C239.937210,772.683655 240.607376,772.735779 241.269669,772.685059 
	C244.284103,772.454285 245.462860,773.869324 245.364029,776.832031 
	C245.241898,780.493713 245.437027,784.165710 245.331680,787.828491 
	C245.251312,790.622742 246.453369,791.739502 249.209183,791.659851 
	C252.872070,791.554016 256.544037,791.743469 260.205658,791.618286 
	C263.158112,791.517334 264.508423,792.647522 264.355316,795.694580 
	C264.213318,798.520203 264.580963,801.386353 264.274384,804.185364 
	C263.774872,808.745178 265.756378,810.050659 270.027374,809.729553 
	C274.148499,809.419739 278.311188,809.662537 283.393738,809.662537 
	C283.393738,815.405701 283.393738,821.508606 283.170532,827.805054 
	C282.798340,828.127563 282.649414,828.256470 282.500488,828.385376 
M376.460175,308.722321 
	C376.529327,305.561157 376.643646,302.400208 376.658600,299.238800 
	C376.693176,291.912262 376.673706,291.912170 384.023560,291.815552 
	C395.577301,291.663666 395.826874,291.657440 395.536255,280.007629 
	C395.410126,274.952026 396.931671,273.447662 401.991058,273.522339 
	C416.128143,273.731079 416.247253,273.504517 415.242615,259.484344 
	C414.963806,255.593689 416.341858,254.516739 419.980591,254.603073 
	C427.473846,254.780869 434.974670,254.694870 442.471771,254.637222 
	C452.710907,254.558517 451.581757,255.903107 451.660614,245.693161 
	C451.668365,244.693558 451.658722,243.693817 451.662598,242.694168 
	C451.689606,235.730225 451.690063,235.718369 458.414490,235.700256 
	C464.912323,235.682755 471.411682,235.781799 477.907745,235.673096 
	C491.549133,235.444824 489.320892,237.699997 489.714417,223.629333 
	C489.835663,219.292404 488.044739,218.285263 484.086853,218.336533 
	C473.778900,218.470093 463.523956,219.808182 453.187317,219.408096 
	C448.894318,219.241928 444.657257,218.567474 440.287476,218.784210 
	C435.375183,219.027863 433.828003,220.995422 434.294678,225.567886 
	C434.547089,228.040802 434.213623,230.568207 434.355621,233.058990 
	C434.541321,236.317352 433.106110,237.438629 429.920044,237.391296 
	C421.091614,237.260147 412.252380,237.567017 403.432617,237.261856 
	C398.680908,237.097458 397.022797,238.606140 397.108490,243.479767 
	C397.327332,255.922501 397.124390,255.926086 384.470825,256.006073 
	C377.353210,256.051056 377.353210,256.051025 377.350555,263.246582 
	C377.346222,274.964722 377.346222,274.963531 365.849915,275.036163 
	C364.683838,275.043549 363.515503,275.133667 362.352356,275.085266 
	C359.327972,274.959442 358.425293,276.475403 358.264709,279.363678 
	C358.020050,283.763794 360.396210,289.351044 357.042236,292.264099 
	C353.861572,295.026703 348.385406,293.222778 343.931366,293.242126 
	C340.471252,293.257141 339.256866,294.503418 339.272888,297.955872 
	C339.291992,302.073364 341.049194,307.178497 338.429688,310.083496 
	C335.529999,313.299194 330.223572,311.173157 325.989716,311.280273 
	C322.563171,311.366913 321.318970,312.508301 321.257385,315.969330 
	C321.181793,320.217682 323.239990,325.631622 320.153351,328.426025 
	C317.174500,331.122864 311.836639,329.408630 307.566650,329.295074 
	C303.303528,329.181671 302.146240,330.870270 302.260284,334.896362 
	C302.505554,343.553284 302.117676,352.229950 302.433197,360.882324 
	C302.598236,365.409180 300.908691,366.827545 296.638245,366.432526 
	C293.665466,366.157532 290.642792,366.474945 287.647125,366.379608 
	C284.776672,366.288300 283.364563,367.324005 283.371307,370.415588 
	C283.418762,392.241455 283.378662,414.067535 283.354706,435.893524 
	C283.352661,437.752991 283.689087,439.197723 286.037231,439.177216 
	C291.144470,439.132721 296.252380,439.163483 300.930969,439.163483 
	C302.294586,436.875214 301.873352,435.171692 301.878937,433.545227 
	C301.921295,421.216156 301.928497,408.886841 301.915771,396.557678 
	C301.902618,383.813171 301.887390,383.813202 314.344513,383.642487 
	C314.511078,383.640198 314.680267,383.621124 314.843964,383.642487 
	C318.752686,384.152771 320.198730,382.407806 320.130859,378.530121 
	C319.976532,369.713989 320.160156,360.892395 320.070221,352.074432 
	C320.037018,348.821198 320.880798,347.145020 324.628571,347.417847 
	C328.425415,347.694275 332.276123,347.129608 336.096191,347.222961 
	C338.698456,347.286560 339.729279,346.350494 339.666412,343.767517 
	C339.573242,339.938171 339.723877,336.103363 339.659973,332.272705 
	C339.618134,329.767090 340.649902,328.610901 343.214539,328.662689 
	C346.878082,328.736633 350.550323,328.525024 354.208313,328.682098 
	C357.473541,328.822235 358.707550,327.430328 358.612732,324.249329 
	C358.481354,319.842163 358.579742,315.428192 358.579742,310.648224 
	C361.471039,310.648224 363.475372,310.826172 365.436035,310.609436 
	C368.986969,310.216858 372.754974,311.824463 376.460175,308.722321 
M656.535767,623.794373 
	C661.695923,623.794434 666.858398,623.894836 672.015808,623.774963 
	C685.504211,623.461548 683.358826,626.338562 683.694824,611.783997 
	C683.791138,607.608643 682.182861,606.327820 678.130432,606.292236 
	C668.498291,606.207581 658.838745,607.106384 649.230530,605.706787 
	C646.509094,605.310425 645.135437,606.441345 645.342041,609.323242 
	C645.448853,610.813477 645.337952,612.318176 645.354614,613.816101 
	C645.481079,625.178284 643.889648,623.667297 656.535767,623.794373 
z"/>
<path fill="#000000" opacity="1.000000" stroke="none" 
	d="
M301.825317,847.255249 
	C296.811859,847.440552 291.994110,847.237976 287.189453,847.406860 
	C283.667908,847.530701 282.516327,846.065063 282.640259,842.698425 
	C282.804901,838.225159 282.625366,833.739197 282.547089,828.822021 
	C282.649414,828.256470 282.798340,828.127563 283.609619,827.852478 
	C289.053955,827.795654 293.837830,828.005127 298.617157,827.928467 
	C301.421021,827.883606 302.405396,829.007080 302.356232,831.725220 
	C302.266754,836.671387 302.393372,841.621521 302.429840,846.570007 
	C302.295441,846.722229 302.161041,846.874451 301.825317,847.255249 
z"/>
<path fill="#000000" opacity="1.000000" stroke="none" 
	d="
M550.800598,365.349426 
	C555.018311,365.716034 558.841675,365.843689 562.644775,365.128387 
	C566.498840,364.403442 568.501282,365.400574 568.438232,369.964020 
	C568.314331,378.927521 568.141113,387.890472 569.098022,396.873413 
	C569.530334,400.931152 570.868530,402.186035 574.530518,401.836639 
	C574.860535,401.805145 575.196594,401.836334 575.529846,401.839935 
	C586.342529,401.955963 586.344421,401.956024 586.345459,413.043579 
	C586.349609,456.869843 586.355774,500.696136 586.352295,544.522400 
	C586.351746,551.309692 586.330322,551.324890 579.453430,551.327026 
	C576.121948,551.328064 572.789978,551.277954 569.459412,551.202087 
	C569.001404,551.191650 568.549866,550.898254 568.075378,550.728699 
	C567.118774,548.774292 567.673218,546.750427 567.671387,544.803101 
	C567.635498,505.642761 567.558838,466.481964 567.749512,427.322571 
	C567.773499,422.388519 566.192932,421.129028 561.482727,421.211334 
	C548.898560,421.431152 548.692383,421.232300 548.824951,408.776672 
	C548.873657,404.200562 547.203735,403.200958 542.987671,403.242828 
	C529.783386,403.373901 529.661072,403.221222 529.728638,389.865143 
	C529.748413,385.943298 528.889709,384.097809 524.492981,384.261444 
	C519.888855,384.432800 514.208862,386.213623 510.894745,383.420227 
	C507.595703,380.639496 509.818909,374.918243 509.731079,370.511841 
	C509.643829,366.135773 506.975586,366.337372 504.016541,366.340302 
	C482.353394,366.361877 460.690216,366.365509 439.027100,366.340668 
	C437.064270,366.338409 435.036041,366.727295 432.732758,365.582123 
	C432.732758,360.481171 432.758911,355.205627 432.720825,349.930542 
	C432.703949,347.592133 433.857086,346.662201 436.100220,346.679199 
	C439.932373,346.708221 443.769531,346.540527 447.596222,346.681824 
	C450.636749,346.794128 451.819366,345.537933 451.678589,342.547913 
	C451.537659,339.555267 451.869537,336.531891 451.610382,333.555389 
	C451.248718,329.401978 452.930298,328.005554 457.029144,328.041931 
	C473.358459,328.187042 489.689880,328.087738 506.020538,328.082642 
	C512.852661,328.080536 519.685730,328.155823 526.516602,328.062714 
	C530.106873,328.013794 531.664490,329.450714 531.392029,333.146790 
	C531.159973,336.295471 531.474060,339.481323 531.322632,342.639984 
	C531.175293,345.714966 532.529663,346.935120 535.483582,346.656036 
	C535.813660,346.624847 536.149780,346.653320 536.482971,346.659515 
	C549.244751,346.896484 549.224426,346.896851 549.373657,360.001007 
	C549.393738,361.763733 548.804993,363.714294 550.800598,365.349426 
z"/>
<path fill="#000000" opacity="1.000000" stroke="none" 
	d="
M491.113983,431.860596 
	C490.263367,437.451080 492.466034,439.298615 497.508026,438.717194 
	C500.468048,438.375824 503.510437,438.816956 506.497528,438.623810 
	C510.059875,438.393494 511.236511,440.005463 511.062286,443.364319 
	C510.889862,446.688477 511.109650,450.031372 510.996338,453.360596 
	C510.886688,456.583496 512.290100,457.833099 515.496765,457.698151 
	C519.488831,457.530121 523.495728,457.747467 527.493286,457.662476 
	C530.264465,457.603516 531.487610,458.836517 531.313660,461.556580 
	C531.303101,461.722168 531.316895,461.889832 531.325928,462.056152 
	C532.158081,477.380493 532.158142,477.382629 516.960449,477.374634 
	C509.627655,477.370758 502.293121,477.261383 494.962830,477.391754 
	C491.715424,477.449463 490.337646,476.159546 490.659088,472.969330 
	C490.692322,472.639648 490.660522,472.303192 490.654785,471.969910 
	C490.432678,459.078400 490.432617,459.080994 477.721039,459.079224 
	C471.054840,459.078308 464.386871,459.154327 457.723114,459.023346 
	C454.285950,458.955811 452.871704,460.394409 453.033569,463.792572 
	C453.168121,466.618591 452.898834,469.464905 453.055298,472.288544 
	C453.270355,476.170135 451.652100,477.487091 447.754852,477.440369 
	C433.091278,477.264648 418.424286,477.378082 403.758575,477.378418 
	C390.759430,477.378693 377.760284,477.372589 364.761139,477.369476 
	C362.957245,477.369049 361.153381,477.369415 358.685730,477.369415 
	C358.685730,471.438629 358.678284,466.001434 358.689423,460.564270 
	C358.693848,458.400757 360.028381,457.718842 361.947357,457.711914 
	C365.280243,457.699921 368.628021,457.474182 371.942139,457.714935 
	C375.768250,457.992920 376.979126,456.347961 376.731018,452.739624 
	C376.514313,449.588623 376.859619,446.400055 376.664062,443.246216 
	C376.449646,439.787750 377.796875,438.537018 381.275391,438.601532 
	C390.271606,438.768372 399.276978,438.497192 408.270752,438.720703 
	C412.220123,438.818878 413.871399,437.826630 413.865906,433.487885 
	C413.849670,420.655518 414.026520,420.652954 426.675079,420.652466 
	C445.673859,420.651733 464.672607,420.652588 483.671387,420.657166 
	C491.118256,420.658966 491.118073,420.664307 491.112213,427.887878 
	C491.111267,429.054535 491.112823,430.221191 491.113983,431.860596 
z"/>
<path fill="#000000" opacity="1.000000" stroke="none" 
	d="
M803.000000,459.275940 
	C790.171021,459.268188 777.840759,459.358429 765.513855,459.193726 
	C761.725220,459.143127 760.256165,460.226715 760.255676,464.298126 
	C760.254089,477.383789 760.092224,477.382477 747.201721,477.376099 
	C734.372925,477.369751 721.542053,477.236877 708.716492,477.438416 
	C704.733826,477.500977 703.165039,476.098541 703.633667,472.240356 
	C703.673523,471.912109 703.639832,471.574554 703.635864,471.241364 
	C703.471741,457.441925 705.371338,459.302979 691.267334,459.128601 
	C683.658142,459.034485 683.657715,459.070312 683.649231,451.446899 
	C683.635193,438.879578 683.635193,438.879608 696.244995,438.883942 
	C703.610962,438.886475 703.610779,438.886444 703.637939,431.340851 
	C703.648743,428.343445 703.651001,425.345886 703.686768,422.348785 
	C703.690369,422.043823 703.898560,421.741302 704.126770,421.129486 
	C704.742432,421.003937 705.517578,420.733185 706.302246,420.702057 
	C734.917603,419.566406 763.547546,419.695496 792.176880,419.647858 
	C795.980408,419.641541 797.902466,420.768005 797.346741,424.782959 
	C797.324097,424.946320 797.343628,425.115784 797.346069,425.282349 
	C797.544006,438.651123 797.544006,438.650757 811.147217,438.649261 
	C818.624878,438.648468 826.102478,438.649139 834.301025,438.649139 
	C834.301025,444.838287 834.345947,450.603516 834.282288,456.367554 
	C834.250183,459.270599 832.022034,459.228729 829.990601,459.235962 
	C821.160522,459.267334 812.330200,459.265564 803.000000,459.275940 
z"/>
<path fill="#000000" opacity="1.000000" stroke="none" 
	d="
M764.993591,550.389526 
	C758.847595,550.387939 753.184448,550.127136 747.557251,550.465515 
	C742.932922,550.743530 740.695007,549.599731 741.503662,544.471985 
	C742.140808,540.431763 741.035645,536.239563 742.115967,531.660645 
	C748.470398,531.660645 754.750854,531.668640 761.031372,531.657593 
	C764.851379,531.650879 768.686462,531.822449 772.488098,531.546692 
	C779.296387,531.052795 779.287903,530.936890 779.314209,537.552979 
	C779.365295,550.388306 779.365356,550.388306 766.488586,550.389343 
	C766.156372,550.389404 765.824158,550.389404 764.993591,550.389526 
z"/>
<path fill="#000000" opacity="1.000000" stroke="none" 
	d="
M396.165894,754.732971 
	C401.361237,754.571411 406.339355,754.689453 411.316254,754.651550 
	C413.893127,754.631958 415.422516,755.363342 415.343842,758.291931 
	C415.232452,762.437866 415.259460,766.589783 415.326355,770.737549 
	C415.367432,773.283813 414.188690,774.331482 411.708710,774.294800 
	C407.726593,774.235840 403.740112,774.181824 399.761078,774.305420 
	C396.789246,774.397644 395.566467,773.180054 395.631104,770.195984 
	C395.731689,765.552002 395.604553,760.903198 395.542603,755.816406 
	C395.656921,755.233521 395.802551,755.090698 396.165894,754.732971 
z"/>
</svg>